<svg width="117" height="117" viewBox="0 0 117 117" padding="10px" fill="none" xmlns="http://www.w3.org/2000/svg">
<path d="M48.5086 0C46.7975 0 43.4609 0.256659 43.4609 0.256659C37.4893 8.31575 33.9645 18.2912 33.9645 29.088C33.9645 49.039 45.9933 66.1667 63.2066 73.6098C58.8947 76.1422 53.8813 77.5966 48.5086 77.5966C32.4417 77.5966 19.4034 64.5754 19.4034 48.4914C19.4034 42.4685 21.2343 36.8905 24.3655 32.2364C23.6469 21.8502 26.4188 11.4983 31.6888 2.97724C13.1923 9.8386 0 27.6336 0 48.4914C0 75.2866 21.7134 97 48.5086 97C75.3038 97 97 75.2866 97 48.4914C97 21.7134 75.2866 0 48.5086 0ZM76.1764 57.5258C63.121 54.6513 53.3509 43.0332 53.3509 29.1051C53.3509 25.9568 53.8642 22.9282 54.7881 20.0878C67.8435 22.9624 77.6137 34.5805 77.6137 48.5086C77.5966 51.6569 77.1004 54.6855 76.1764 57.5258Z" fill="#E4E4E4"/>
</svg>
